<?xml version="1.0" encoding="UTF-8" standalone="no"?><!DOCTYPE svg PUBLIC "-//W3C//DTD SVG 1.1//EN" "http://www.w3.org/Graphics/SVG/1.1/DTD/svg11.dtd"><svg width="100%" height="100%" viewBox="0 0 720 360" version="1.1" xmlns="http://www.w3.org/2000/svg" xmlns:xlink="http://www.w3.org/1999/xlink" xml:space="preserve" xmlns:serif="http://www.serif.com/" style="fill-rule:evenodd;clip-rule:evenodd;stroke-linejoin:round;stroke-miterlimit:10;"><g><g><text x="171.144px" y="270.037px" style="font-family:'AlegreyaSans-Light', 'Alegreya Sans';font-weight:300;font-size:9px;fill:#1a1a1a;">Skeletonema costatum</text><g transform="matrix(1,0,0,1,140.164,-1.16344)"><text x="178.38px" y="271.2px" style="font-family:'AlegreyaSans-Light', 'Alegreya Sans';font-weight:300;font-size:9px;fill:#1a1a1a;">T</text><text x="181.727px" y="271.2px" style="font-family:'AlegreyaSans-Light', 'Alegreya Sans';font-weight:300;font-size:9px;fill:#1a1a1a;">etraselmus suecica</text></g><path d="M506.693,263.791l-0.081,0.378l-0.045,0.036c-0.384,-0.138 -0.744,-0.207 -1.08,-0.207c-0.75,0 -1.128,0.366 -1.134,1.098l-0.009,0.855l1.107,0l0.027,0.045l-0.036,0.288l-1.098,0l-0.009,1.998l0.027,1.755l-0.459,0l0.027,-1.728l-0.009,-2.025l-0.612,0l-0.036,-0.045l0.036,-0.288l0.612,0l-0.009,-0.801c-0.006,-0.498 0.127,-0.876 0.4,-1.134c0.273,-0.258 0.668,-0.387 1.184,-0.387c0.366,0 0.765,0.054 1.197,0.162Z" style="fill:#1a1a1a;"/><text x="456.824px" y="270.037px" style="font-family:'AlegreyaSans-Light', 'Alegreya Sans';font-weight:300;font-size:9px;fill:#1a1a1a;">Thalassiosira <tspan x="505.622px " y="270.037px ">l</tspan>uviatilis</text><text x="610.334px" y="270.037px" style="font-family:'AlegreyaSans-Light', 'Alegreya Sans';font-weight:300;font-size:9px;fill:#1a1a1a;">Thalassiosira sp.</text><text x="152.104px" y="337.497px" style="font-family:'Oswald-Light', 'Oswald';font-weight:300;font-size:8px;fill:#4d4d4d;">5</text><text x="174.484px" y="337.497px" style="font-family:'Oswald-Light', 'Oswald';font-weight:300;font-size:8px;fill:#4d4d4d;">10</text><text x="199.374px" y="337.497px" style="font-family:'Oswald-Light', 'Oswald';font-weight:300;font-size:8px;fill:#4d4d4d;">15</text><text x="224.264px" y="337.497px" style="font-family:'Oswald-Light', 'Oswald';font-weight:300;font-size:8px;fill:#4d4d4d;">20</text><text x="249.144px" y="337.497px" style="font-family:'Oswald-Light', 'Oswald';font-weight:300;font-size:8px;fill:#4d4d4d;">25</text><g transform="matrix(1,0,0,1,140.164,-1.16344)"><text x="133.87px" y="338.927px" style="font-family:'Oswald-Light', 'Oswald';font-weight:300;font-size:8px;fill:#4d4d4d;">30</text><text x="154.3px" y="338.927px" style="font-family:'Oswald-Light', 'Oswald';font-weight:300;font-size:8px;fill:#4d4d4d;">5</text></g><text x="316.844px" y="337.497px" style="font-family:'Oswald-Light', 'Oswald';font-weight:300;font-size:8px;fill:#4d4d4d;">10</text><text x="341.734px" y="337.497px" style="font-family:'Oswald-Light', 'Oswald';font-weight:300;font-size:8px;fill:#4d4d4d;">15</text><text x="366.614px" y="337.497px" style="font-family:'Oswald-Light', 'Oswald';font-weight:300;font-size:8px;fill:#4d4d4d;">20</text><text x="391.504px" y="337.497px" style="font-family:'Oswald-Light', 'Oswald';font-weight:300;font-size:8px;fill:#4d4d4d;">25</text><g transform="matrix(1,0,0,1,140.164,-1.16344)"><text x="276.23px" y="338.927px" style="font-family:'Oswald-Light', 'Oswald';font-weight:300;font-size:8px;fill:#4d4d4d;">30</text><text x="296.65px" y="338.927px" style="font-family:'Oswald-Light', 'Oswald';font-weight:300;font-size:8px;fill:#4d4d4d;">5</text></g><text x="459.204px" y="337.497px" style="font-family:'Oswald-Light', 'Oswald';font-weight:300;font-size:8px;fill:#4d4d4d;">10</text><text x="484.084px" y="337.497px" style="font-family:'Oswald-Light', 'Oswald';font-weight:300;font-size:8px;fill:#4d4d4d;">15</text><text x="508.974px" y="337.497px" style="font-family:'Oswald-Light', 'Oswald';font-weight:300;font-size:8px;fill:#4d4d4d;">20</text><text x="533.864px" y="337.497px" style="font-family:'Oswald-Light', 'Oswald';font-weight:300;font-size:8px;fill:#4d4d4d;">25</text><g transform="matrix(1,0,0,1,140.164,-1.16344)"><text x="418.58px" y="338.927px" style="font-family:'Oswald-Light', 'Oswald';font-weight:300;font-size:8px;fill:#4d4d4d;">30</text><text x="439.01px" y="338.927px" style="font-family:'Oswald-Light', 'Oswald';font-weight:300;font-size:8px;fill:#4d4d4d;">5</text></g><text x="601.554px" y="337.497px" style="font-family:'Oswald-Light', 'Oswald';font-weight:300;font-size:8px;fill:#4d4d4d;">10</text><text x="626.444px" y="337.497px" style="font-family:'Oswald-Light', 'Oswald';font-weight:300;font-size:8px;fill:#4d4d4d;">15</text><text x="651.334px" y="337.497px" style="font-family:'Oswald-Light', 'Oswald';font-weight:300;font-size:8px;fill:#4d4d4d;">20</text><text x="676.214px" y="337.497px" style="font-family:'Oswald-Light', 'Oswald';font-weight:300;font-size:8px;fill:#4d4d4d;">25</text><text x="701.104px" y="337.497px" style="font-family:'Oswald-Light', 'Oswald';font-weight:300;font-size:8px;fill:#4d4d4d;">30</text><g><clipPath id="_clip1"><rect x="148.384" y="275.517" width="136.88" height="50.59" clip-rule="nonzero"/></clipPath><g clip-path="url(#_clip1)"><path d="M148.384,313.827l136.88,0" style="fill:none;stroke:#ebebeb;stroke-width:0.21px;"/><path d="M148.384,293.357l136.88,0" style="fill:none;stroke:#ebebeb;stroke-width:0.21px;"/><path d="M154.604,326.107l0,-50.6" style="fill:none;stroke:#ebebeb;stroke-width:0.21px;"/><path d="M179.494,326.107l0,-50.6" style="fill:none;stroke:#ebebeb;stroke-width:0.21px;"/><path d="M204.374,326.107l0,-50.6" style="fill:none;stroke:#ebebeb;stroke-width:0.21px;"/><path d="M229.264,326.107l0,-50.6" style="fill:none;stroke:#ebebeb;stroke-width:0.21px;"/><path d="M254.154,326.107l0,-50.6" style="fill:none;stroke:#ebebeb;stroke-width:0.21px;"/><path d="M279.034,326.107l0,-50.6" style="fill:none;stroke:#ebebeb;stroke-width:0.21px;"/><path d="M154.604,288.607l24.89,-6.06l74.66,0.99l24.88,1.96l0,7.86l-24.88,0l-74.66,0l-24.89,0l0,-4.75Z" style="fill:#8fbcbb;fill-rule:nonzero;"/><path d="M154.604,288.607l24.89,-6.06l74.66,0.99l24.88,1.96" style="fill:none;stroke:#4d4d4d;stroke-width:0.43px;stroke-linecap:round;"/><path d="M154.604,308.257l24.89,-4.42l74.66,-0.98l24.88,3.93l0,7.04l-24.88,0l-74.66,0l-24.89,0l0,-5.57Z" style="fill:#5e81ac;fill-rule:nonzero;"/><path d="M154.604,308.257l24.89,-4.42l74.66,-0.98l24.88,3.93" style="fill:none;stroke:#4d4d4d;stroke-width:0.43px;stroke-linecap:round;"/></g></g><g><clipPath id="_clip2"><rect x="290.744" y="275.517" width="136.88" height="50.59" clip-rule="nonzero"/></clipPath><g clip-path="url(#_clip2)"><path d="M290.744,313.827l136.87,0" style="fill:none;stroke:#ebebeb;stroke-width:0.21px;"/><path d="M290.744,293.357l136.87,0" style="fill:none;stroke:#ebebeb;stroke-width:0.21px;"/><path d="M296.964,326.107l0,-50.6" style="fill:none;stroke:#ebebeb;stroke-width:0.21px;"/><path d="M321.844,326.107l0,-50.6" style="fill:none;stroke:#ebebeb;stroke-width:0.21px;"/><path d="M346.734,326.107l0,-50.6" style="fill:none;stroke:#ebebeb;stroke-width:0.21px;"/><path d="M371.624,326.107l0,-50.6" style="fill:none;stroke:#ebebeb;stroke-width:0.21px;"/><path d="M396.504,326.107l0,-50.6" style="fill:none;stroke:#ebebeb;stroke-width:0.21px;"/><path d="M421.394,326.107l0,-50.6" style="fill:none;stroke:#ebebeb;stroke-width:0.21px;"/><path d="M296.964,292.707l24.88,-6.23l74.66,-0.65l24.89,-1.47l0,9l-24.89,0l-74.66,0l-24.88,0l0,-0.65Z" style="fill:#8fbcbb;fill-rule:nonzero;"/><path d="M296.964,292.707l24.88,-6.23l74.66,-0.65l24.89,-1.47" style="fill:none;stroke:#4d4d4d;stroke-width:0.43px;stroke-linecap:round;"/><path d="M296.964,314.147l24.88,-4.91l74.66,-2.62l24.89,-1.14l0,8.35l-24.89,0l-74.66,0l-24.88,0l0,0.32Z" style="fill:#5e81ac;fill-rule:nonzero;"/><path d="M296.964,314.147l24.88,-4.91l74.66,-2.62l24.89,-1.14" style="fill:none;stroke:#4d4d4d;stroke-width:0.43px;stroke-linecap:round;"/></g></g><g><clipPath id="_clip3"><rect x="433.094" y="275.517" width="136.88" height="50.59" clip-rule="nonzero"/></clipPath><g clip-path="url(#_clip3)"><path d="M433.094,313.827l136.88,0" style="fill:none;stroke:#ebebeb;stroke-width:0.21px;"/><path d="M433.094,293.357l136.88,0" style="fill:none;stroke:#ebebeb;stroke-width:0.21px;"/><path d="M439.314,326.107l0,-50.6" style="fill:none;stroke:#ebebeb;stroke-width:0.21px;"/><path d="M464.204,326.107l0,-50.6" style="fill:none;stroke:#ebebeb;stroke-width:0.21px;"/><path d="M489.094,326.107l0,-50.6" style="fill:none;stroke:#ebebeb;stroke-width:0.21px;"/><path d="M513.974,326.107l0,-50.6" style="fill:none;stroke:#ebebeb;stroke-width:0.21px;"/><path d="M538.864,326.107l0,-50.6" style="fill:none;stroke:#ebebeb;stroke-width:0.21px;"/><path d="M563.754,326.107l0,-50.6" style="fill:none;stroke:#ebebeb;stroke-width:0.21px;"/><path d="M439.314,292.867l24.89,-1.15l74.66,2.13l24.89,-5.07l0,4.58l-24.89,0l-74.66,0l-24.89,0l0,-0.49Z" style="fill:#8fbcbb;fill-rule:nonzero;"/><path d="M439.314,292.867l24.89,-1.15l74.66,2.13l24.89,-5.07" style="fill:none;stroke:#4d4d4d;stroke-width:0.43px;stroke-linecap:round;"/><path d="M439.314,312.837l24.89,-0.81l74.66,0.16l24.89,-2.13l0,3.77l-24.89,0l-74.66,0l-24.89,0l0,-0.99Z" style="fill:#5e81ac;fill-rule:nonzero;"/><path d="M439.314,312.837l24.89,-0.81l74.66,0.16l24.89,-2.13" style="fill:none;stroke:#4d4d4d;stroke-width:0.43px;stroke-linecap:round;"/></g></g><g><clipPath id="_clip4"><rect x="575.454" y="275.517" width="136.88" height="50.59" clip-rule="nonzero"/></clipPath><g clip-path="url(#_clip4)"><path d="M575.454,313.827l136.87,0" style="fill:none;stroke:#ebebeb;stroke-width:0.21px;"/><path d="M575.454,293.357l136.87,0" style="fill:none;stroke:#ebebeb;stroke-width:0.21px;"/><path d="M581.674,326.107l0,-50.6" style="fill:none;stroke:#ebebeb;stroke-width:0.21px;"/><path d="M606.564,326.107l0,-50.6" style="fill:none;stroke:#ebebeb;stroke-width:0.21px;"/><path d="M631.444,326.107l0,-50.6" style="fill:none;stroke:#ebebeb;stroke-width:0.21px;"/><path d="M656.334,326.107l0,-50.6" style="fill:none;stroke:#ebebeb;stroke-width:0.21px;"/><path d="M681.224,326.107l0,-50.6" style="fill:none;stroke:#ebebeb;stroke-width:0.21px;"/><path d="M706.104,326.107l0,-50.6" style="fill:none;stroke:#ebebeb;stroke-width:0.21px;"/><path d="M581.674,298.107l24.89,-4.09l74.66,-2.79l24.88,-4.42l0,6.55l-24.88,0l-74.66,0l-24.89,0l0,4.75Z" style="fill:#8fbcbb;fill-rule:nonzero;"/><path d="M581.674,298.107l24.89,-4.09l74.66,-2.79l24.88,-4.42" style="fill:none;stroke:#4d4d4d;stroke-width:0.43px;stroke-linecap:round;"/><path d="M581.674,316.607l24.89,-0.82l74.66,-4.42l24.88,-4.26l0,6.72l-24.88,0l-74.66,0l-24.89,0l0,2.78Z" style="fill:#5e81ac;fill-rule:nonzero;"/><path d="M581.674,316.607l24.89,-0.82l74.66,-4.42l24.88,-4.26" style="fill:none;stroke:#4d4d4d;stroke-width:0.43px;stroke-linecap:round;"/></g></g></g><g><text x="54.085px" y="270.067px" style="font-family:'AlegreyaSans-Light', 'Alegreya Sans';font-weight:300;font-size:9px;fill:#1a1a1a;">Nitzscia sp.</text><text x="12.205px" y="337.537px" style="font-family:'Oswald-Light', 'Oswald';font-weight:300;font-size:8px;fill:#4d4d4d;">5</text><text x="34.595px" y="337.537px" style="font-family:'Oswald-Light', 'Oswald';font-weight:300;font-size:8px;fill:#4d4d4d;">10</text><text x="59.475px" y="337.537px" style="font-family:'Oswald-Light', 'Oswald';font-weight:300;font-size:8px;fill:#4d4d4d;">15</text><text x="84.365px" y="337.537px" style="font-family:'Oswald-Light', 'Oswald';font-weight:300;font-size:8px;fill:#4d4d4d;">20</text><text x="109.255px" y="337.537px" style="font-family:'Oswald-Light', 'Oswald';font-weight:300;font-size:8px;fill:#4d4d4d;">25</text><text x="134.135px" y="337.537px" style="font-family:'Oswald-Light', 'Oswald';font-weight:300;font-size:8px;fill:#4d4d4d;">30</text><g><clipPath id="_clip5"><rect x="8.485" y="275.547" width="136.88" height="50.59" clip-rule="nonzero"/></clipPath><g clip-path="url(#_clip5)"><path d="M8.485,313.867l136.88,0" style="fill:none;stroke:#ebebeb;stroke-width:0.21px;"/><path d="M8.485,293.397l136.88,0" style="fill:none;stroke:#ebebeb;stroke-width:0.21px;"/><path d="M14.715,326.137l0,-50.59" style="fill:none;stroke:#ebebeb;stroke-width:0.21px;"/><path d="M39.595,326.137l0,-50.59" style="fill:none;stroke:#ebebeb;stroke-width:0.21px;"/><path d="M64.485,326.137l0,-50.59" style="fill:none;stroke:#ebebeb;stroke-width:0.21px;"/><path d="M89.375,326.137l0,-50.59" style="fill:none;stroke:#ebebeb;stroke-width:0.21px;"/><path d="M114.255,326.137l0,-50.59" style="fill:none;stroke:#ebebeb;stroke-width:0.21px;"/><path d="M139.145,326.137l0,-50.59" style="fill:none;stroke:#ebebeb;stroke-width:0.21px;"/><path d="M14.715,295.037l24.88,-4.91l74.66,-0.5l24.89,-3.76l0,7.53l-24.89,0l-74.66,0l-24.88,0l0,1.64Z" style="fill:#8fbcbb;fill-rule:nonzero;"/><path d="M14.715,295.037l24.88,-4.91l74.66,-0.5l24.89,-3.76" style="fill:none;stroke:#4d4d4d;stroke-width:0.43px;stroke-linecap:round;"/><path d="M14.715,311.897l24.88,-1.8l74.66,-0.98l24.89,-1.8l0,6.55l-24.89,0l-74.66,0l-24.88,0l0,-1.97Z" style="fill:#5e81ac;fill-rule:nonzero;"/><path d="M14.715,311.897l24.88,-1.8l74.66,-0.98l24.89,-1.8" style="fill:none;stroke:#4d4d4d;stroke-width:0.43px;stroke-linecap:round;"/></g></g></g></g><g><text x="179.424px" y="199.737px" style="font-family:'AlegreyaSans-Light', 'Alegreya Sans';font-weight:300;font-size:9px;fill:#1a1a1a;">Isochrysis galbana</text><text x="319.844px" y="199.737px" style="font-family:'AlegreyaSans-Light', 'Alegreya Sans';font-weight:300;font-size:9px;fill:#1a1a1a;">Nannochloris salina</text><text x="457.014px" y="199.737px" style="font-family:'AlegreyaSans-Light', 'Alegreya Sans';font-weight:300;font-size:9px;fill:#1a1a1a;">Nannochlorois oculata</text><text x="611.794px" y="199.737px" style="font-family:'AlegreyaSans-Light', 'Alegreya Sans';font-weight:300;font-size:9px;fill:#1a1a1a;">Navicula incerta</text><g><clipPath id="_clip6"><rect x="148.384" y="205.217" width="136.88" height="50.59" clip-rule="nonzero"/></clipPath><g clip-path="url(#_clip6)"><path d="M148.384,243.537l136.88,0" style="fill:none;stroke:#ebebeb;stroke-width:0.21px;"/><path d="M148.384,223.067l136.88,0" style="fill:none;stroke:#ebebeb;stroke-width:0.21px;"/><path d="M154.604,255.807l0,-50.59" style="fill:none;stroke:#ebebeb;stroke-width:0.21px;"/><path d="M179.494,255.807l0,-50.59" style="fill:none;stroke:#ebebeb;stroke-width:0.21px;"/><path d="M204.374,255.807l0,-50.59" style="fill:none;stroke:#ebebeb;stroke-width:0.21px;"/><path d="M229.264,255.807l0,-50.59" style="fill:none;stroke:#ebebeb;stroke-width:0.21px;"/><path d="M254.154,255.807l0,-50.59" style="fill:none;stroke:#ebebeb;stroke-width:0.21px;"/><path d="M279.034,255.807l0,-50.59" style="fill:none;stroke:#ebebeb;stroke-width:0.21px;"/><path d="M154.604,232.397l24.89,-16.21l74.66,-2.13l24.88,0.5l0,8.51l-24.88,0l-74.66,0l-24.89,0l0,9.33Z" style="fill:#8fbcbb;fill-rule:nonzero;"/><path d="M154.604,232.397l24.89,-16.21l74.66,-2.13l24.88,0.5" style="fill:none;stroke:#4d4d4d;stroke-width:0.43px;stroke-linecap:round;"/><path d="M154.604,244.677l24.89,-5.24l74.66,-4.91l24.88,0.66l0,8.35l-24.88,0l-74.66,0l-24.89,0l0,1.14Z" style="fill:#5e81ac;fill-rule:nonzero;"/><path d="M154.604,244.677l24.89,-5.24l74.66,-4.91l24.88,0.66" style="fill:none;stroke:#4d4d4d;stroke-width:0.43px;stroke-linecap:round;"/></g></g><g><clipPath id="_clip7"><rect x="290.744" y="205.217" width="136.88" height="50.59" clip-rule="nonzero"/></clipPath><g clip-path="url(#_clip7)"><path d="M290.744,243.537l136.87,0" style="fill:none;stroke:#ebebeb;stroke-width:0.21px;"/><path d="M290.744,223.067l136.87,0" style="fill:none;stroke:#ebebeb;stroke-width:0.21px;"/><path d="M296.964,255.807l0,-50.59" style="fill:none;stroke:#ebebeb;stroke-width:0.21px;"/><path d="M321.844,255.807l0,-50.59" style="fill:none;stroke:#ebebeb;stroke-width:0.21px;"/><path d="M346.734,255.807l0,-50.59" style="fill:none;stroke:#ebebeb;stroke-width:0.21px;"/><path d="M371.624,255.807l0,-50.59" style="fill:none;stroke:#ebebeb;stroke-width:0.21px;"/><path d="M396.504,255.807l0,-50.59" style="fill:none;stroke:#ebebeb;stroke-width:0.21px;"/><path d="M421.394,255.807l0,-50.59" style="fill:none;stroke:#ebebeb;stroke-width:0.21px;"/><path d="M296.964,222.087l24.88,0.32l74.66,5.9l24.89,-12.77l0,7.53l-24.89,0l-74.66,0l-24.88,0l0,-0.98Z" style="fill:#8fbcbb;fill-rule:nonzero;"/><path d="M296.964,222.087l24.88,0.32l74.66,5.9l24.89,-12.77" style="fill:none;stroke:#4d4d4d;stroke-width:0.43px;stroke-linecap:round;"/><path d="M296.964,242.387l24.88,-7.7l74.66,14.41l24.89,-6.55l0,0.99l-24.89,0l-74.66,0l-24.88,0l0,-1.15Z" style="fill:#5e81ac;fill-rule:nonzero;"/><path d="M296.964,242.387l24.88,-7.7l74.66,14.41l24.89,-6.55" style="fill:none;stroke:#4d4d4d;stroke-width:0.43px;stroke-linecap:round;"/></g></g><g><clipPath id="_clip8"><rect x="433.094" y="205.217" width="136.88" height="50.59" clip-rule="nonzero"/></clipPath><g clip-path="url(#_clip8)"><path d="M433.094,243.537l136.88,0" style="fill:none;stroke:#ebebeb;stroke-width:0.21px;"/><path d="M433.094,223.067l136.88,0" style="fill:none;stroke:#ebebeb;stroke-width:0.21px;"/><path d="M439.314,255.807l0,-50.59" style="fill:none;stroke:#ebebeb;stroke-width:0.21px;"/><path d="M464.204,255.807l0,-50.59" style="fill:none;stroke:#ebebeb;stroke-width:0.21px;"/><path d="M489.094,255.807l0,-50.59" style="fill:none;stroke:#ebebeb;stroke-width:0.21px;"/><path d="M513.974,255.807l0,-50.59" style="fill:none;stroke:#ebebeb;stroke-width:0.21px;"/><path d="M538.864,255.807l0,-50.59" style="fill:none;stroke:#ebebeb;stroke-width:0.21px;"/><path d="M563.754,255.807l0,-50.59" style="fill:none;stroke:#ebebeb;stroke-width:0.21px;"/><path d="M439.314,222.907l24.89,0l74.66,-13.76l24.89,-3.93l0,17.85l-24.89,0l-74.66,0l-24.89,0l0,-0.16Z" style="fill:#8fbcbb;fill-rule:nonzero;"/><path d="M439.314,222.907l24.89,0l74.66,-13.76l24.89,-3.93" style="fill:none;stroke:#4d4d4d;stroke-width:0.43px;stroke-linecap:round;"/><path d="M439.314,244.027l24.89,-1.15l74.66,-14.41l24.89,-3.6l0,18.67l-24.89,0l-74.66,0l-24.89,0l0,0.49Z" style="fill:#5e81ac;fill-rule:nonzero;"/><path d="M439.314,244.027l24.89,-1.15l74.66,-14.41l24.89,-3.6" style="fill:none;stroke:#4d4d4d;stroke-width:0.43px;stroke-linecap:round;"/></g></g><g><clipPath id="_clip9"><rect x="575.454" y="205.217" width="136.88" height="50.59" clip-rule="nonzero"/></clipPath><g clip-path="url(#_clip9)"><path d="M575.454,243.537l136.87,0" style="fill:none;stroke:#ebebeb;stroke-width:0.21px;"/><path d="M575.454,223.067l136.87,0" style="fill:none;stroke:#ebebeb;stroke-width:0.21px;"/><path d="M581.674,255.807l0,-50.59" style="fill:none;stroke:#ebebeb;stroke-width:0.21px;"/><path d="M606.564,255.807l0,-50.59" style="fill:none;stroke:#ebebeb;stroke-width:0.21px;"/><path d="M631.444,255.807l0,-50.59" style="fill:none;stroke:#ebebeb;stroke-width:0.21px;"/><path d="M656.334,255.807l0,-50.59" style="fill:none;stroke:#ebebeb;stroke-width:0.21px;"/><path d="M681.224,255.807l0,-50.59" style="fill:none;stroke:#ebebeb;stroke-width:0.21px;"/><path d="M706.104,255.807l0,-50.59" style="fill:none;stroke:#ebebeb;stroke-width:0.21px;"/><path d="M581.674,220.447l24.89,-3.44l74.66,-0.33l24.88,-1.47l0,7.86l-24.88,0l-74.66,0l-24.89,0l0,-2.62Z" style="fill:#8fbcbb;fill-rule:nonzero;"/><path d="M581.674,220.447l24.89,-3.44l74.66,-0.33l24.88,-1.47" style="fill:none;stroke:#4d4d4d;stroke-width:0.43px;stroke-linecap:round;"/><path d="M581.674,240.257l24.89,-0.33l74.66,-2.45l24.88,0.32l0,5.74l-24.88,0l-74.66,0l-24.89,0l0,-3.28Z" style="fill:#5e81ac;fill-rule:nonzero;"/><path d="M581.674,240.257l24.89,-0.33l74.66,-2.45l24.88,0.32" style="fill:none;stroke:#4d4d4d;stroke-width:0.43px;stroke-linecap:round;"/></g></g></g><g><text x="157.064px" y="123.93px" style="font-family:'AlegreyaSans-Light', 'Alegreya Sans';font-weight:300;font-size:9px;fill:#1a1a1a;">Chlorella vulgaris (freshwater)</text><g transform="matrix(1,0,0,1,140.164,-0.28)"><text x="173.78px" y="124.21px" style="font-family:'AlegreyaSans-Light', 'Alegreya Sans';font-weight:300;font-size:9px;fill:#1a1a1a;">Cyclotella sp. NUFP</text><text x="240.353px" y="124.21px" style="font-family:'AlegreyaSans-Light', 'Alegreya Sans';font-weight:300;font-size:9px;fill:#1a1a1a;">−</text><text x="242.173px" y="124.21px" style="font-family:'AlegreyaSans-Light', 'Alegreya Sans';font-weight:300;font-size:9px;fill:#1a1a1a;">9</text></g><text x="459.334px" y="123.93px" style="font-family:'AlegreyaSans-Light', 'Alegreya Sans';font-weight:300;font-size:9px;fill:#1a1a1a;">Dunaniella tertiolecta</text><text x="610.064px" y="123.93px" style="font-family:'AlegreyaSans-Light', 'Alegreya Sans';font-weight:300;font-size:9px;fill:#1a1a1a;">Hanzchia marina</text><g><clipPath id="_clip10"><rect x="148.384" y="129.41" width="136.88" height="50.59" clip-rule="nonzero"/></clipPath><g clip-path="url(#_clip10)"><path d="M148.384,167.72l136.88,0" style="fill:none;stroke:#ebebeb;stroke-width:0.21px;"/><path d="M148.384,147.26l136.88,0" style="fill:none;stroke:#ebebeb;stroke-width:0.21px;"/><path d="M154.604,180l0,-50.59" style="fill:none;stroke:#ebebeb;stroke-width:0.21px;"/><path d="M179.494,180l0,-50.59" style="fill:none;stroke:#ebebeb;stroke-width:0.21px;"/><path d="M204.374,180l0,-50.59" style="fill:none;stroke:#ebebeb;stroke-width:0.21px;"/><path d="M229.264,180l0,-50.59" style="fill:none;stroke:#ebebeb;stroke-width:0.21px;"/><path d="M254.154,180l0,-50.59" style="fill:none;stroke:#ebebeb;stroke-width:0.21px;"/><path d="M279.034,180l0,-50.59" style="fill:none;stroke:#ebebeb;stroke-width:0.21px;"/><path d="M154.604,151.35l24.89,-7.53l74.66,-7.69l24.88,15.88l0,-4.75l-24.88,0l-74.66,0l-24.89,0l0,4.09Z" style="fill:#8fbcbb;fill-rule:nonzero;"/><path d="M154.604,151.35l24.89,-7.53l74.66,-7.69l24.88,15.88" style="fill:none;stroke:#4d4d4d;stroke-width:0.43px;stroke-linecap:round;"/><path d="M154.604,167.72l24.89,-2.78l74.66,-8.19l24.88,14.25l0,-3.28l-24.88,0l-74.66,0l-24.89,0Z" style="fill:#5e81ac;fill-rule:nonzero;"/><path d="M154.604,167.72l24.89,-2.78l74.66,-8.19l24.88,14.25" style="fill:none;stroke:#4d4d4d;stroke-width:0.43px;stroke-linecap:round;"/></g></g><g><clipPath id="_clip11"><rect x="290.744" y="129.41" width="136.88" height="50.59" clip-rule="nonzero"/></clipPath><g clip-path="url(#_clip11)"><path d="M290.744,167.72l136.87,0" style="fill:none;stroke:#ebebeb;stroke-width:0.21px;"/><path d="M290.744,147.26l136.87,0" style="fill:none;stroke:#ebebeb;stroke-width:0.21px;"/><path d="M296.964,180l0,-50.59" style="fill:none;stroke:#ebebeb;stroke-width:0.21px;"/><path d="M321.844,180l0,-50.59" style="fill:none;stroke:#ebebeb;stroke-width:0.21px;"/><path d="M346.734,180l0,-50.59" style="fill:none;stroke:#ebebeb;stroke-width:0.21px;"/><path d="M371.624,180l0,-50.59" style="fill:none;stroke:#ebebeb;stroke-width:0.21px;"/><path d="M396.504,180l0,-50.59" style="fill:none;stroke:#ebebeb;stroke-width:0.21px;"/><path d="M421.394,180l0,-50.59" style="fill:none;stroke:#ebebeb;stroke-width:0.21px;"/><path d="M296.964,144.64l24.88,2.62l74.66,0l24.89,2.95l0,-2.95l-24.89,0l-74.66,0l-24.88,0l0,-2.62Z" style="fill:#8fbcbb;fill-rule:nonzero;"/><path d="M296.964,144.64l24.88,2.62l74.66,0l24.89,2.95" style="fill:none;stroke:#4d4d4d;stroke-width:0.43px;stroke-linecap:round;"/><path d="M296.964,166.41l24.88,2.95l74.66,-1.64l24.89,3.11l0,-3.11l-24.89,0l-74.66,0l-24.88,0l0,-1.31Z" style="fill:#5e81ac;fill-rule:nonzero;"/><path d="M296.964,166.41l24.88,2.95l74.66,-1.64l24.89,3.11" style="fill:none;stroke:#4d4d4d;stroke-width:0.43px;stroke-linecap:round;"/></g></g><g><clipPath id="_clip12"><rect x="433.094" y="129.41" width="136.88" height="50.59" clip-rule="nonzero"/></clipPath><g clip-path="url(#_clip12)"><path d="M433.094,167.72l136.88,0" style="fill:none;stroke:#ebebeb;stroke-width:0.21px;"/><path d="M433.094,147.26l136.88,0" style="fill:none;stroke:#ebebeb;stroke-width:0.21px;"/><path d="M439.314,180l0,-50.59" style="fill:none;stroke:#ebebeb;stroke-width:0.21px;"/><path d="M464.204,180l0,-50.59" style="fill:none;stroke:#ebebeb;stroke-width:0.21px;"/><path d="M489.094,180l0,-50.59" style="fill:none;stroke:#ebebeb;stroke-width:0.21px;"/><path d="M513.974,180l0,-50.59" style="fill:none;stroke:#ebebeb;stroke-width:0.21px;"/><path d="M538.864,180l0,-50.59" style="fill:none;stroke:#ebebeb;stroke-width:0.21px;"/><path d="M563.754,180l0,-50.59" style="fill:none;stroke:#ebebeb;stroke-width:0.21px;"/><path d="M439.314,142.67l24.89,-2.45l74.66,-2.79l24.89,0l0,9.83l-24.89,0l-74.66,0l-24.89,0l0,-4.59Z" style="fill:#8fbcbb;fill-rule:nonzero;"/><path d="M439.314,142.67l24.89,-2.45l74.66,-2.79l24.89,0" style="fill:none;stroke:#4d4d4d;stroke-width:0.43px;stroke-linecap:round;"/><path d="M439.314,164.94l24.89,-4.09l74.66,-3.6l24.89,3.11l0,7.36l-24.89,0l-74.66,0l-24.89,0l0,-2.78Z" style="fill:#5e81ac;fill-rule:nonzero;"/><path d="M439.314,164.94l24.89,-4.09l74.66,-3.6l24.89,3.11" style="fill:none;stroke:#4d4d4d;stroke-width:0.43px;stroke-linecap:round;"/></g></g><g><clipPath id="_clip13"><rect x="575.454" y="129.41" width="136.88" height="50.59" clip-rule="nonzero"/></clipPath><g clip-path="url(#_clip13)"><path d="M575.454,167.72l136.87,0" style="fill:none;stroke:#ebebeb;stroke-width:0.21px;"/><path d="M575.454,147.26l136.87,0" style="fill:none;stroke:#ebebeb;stroke-width:0.21px;"/><path d="M581.674,180l0,-50.59" style="fill:none;stroke:#ebebeb;stroke-width:0.21px;"/><path d="M606.564,180l0,-50.59" style="fill:none;stroke:#ebebeb;stroke-width:0.21px;"/><path d="M631.444,180l0,-50.59" style="fill:none;stroke:#ebebeb;stroke-width:0.21px;"/><path d="M656.334,180l0,-50.59" style="fill:none;stroke:#ebebeb;stroke-width:0.21px;"/><path d="M681.224,180l0,-50.59" style="fill:none;stroke:#ebebeb;stroke-width:0.21px;"/><path d="M706.104,180l0,-50.59" style="fill:none;stroke:#ebebeb;stroke-width:0.21px;"/><path d="M581.674,153.15l24.89,5.24l74.66,-14.57l24.88,1.64l0,1.8l-24.88,0l-74.66,0l-24.89,0l0,5.89Z" style="fill:#8fbcbb;fill-rule:nonzero;"/><path d="M581.674,153.15l24.89,5.24l74.66,-14.57l24.88,1.64" style="fill:none;stroke:#4d4d4d;stroke-width:0.43px;stroke-linecap:round;"/><path d="M581.674,168.87l24.89,2.29l74.66,-5.89l24.88,1.47l0,0.98l-24.88,0l-74.66,0l-24.89,0l0,1.15Z" style="fill:#5e81ac;fill-rule:nonzero;"/><path d="M581.674,168.87l24.89,2.29l74.66,-5.89l24.88,1.47" style="fill:none;stroke:#4d4d4d;stroke-width:0.43px;stroke-linecap:round;"/></g></g></g><path d="M70.886,197.982l0.027,1.773l-0.459,0l0.027,-1.728l-0.009,-2.025l-0.612,0l-0.036,-0.045l0.036,-0.288l0.603,0l0,-0.684c0,-0.468 0.11,-0.827 0.329,-1.076c0.219,-0.249 0.532,-0.373 0.94,-0.373c0.252,0 0.498,0.033 0.738,0.099l-0.054,0.378l-0.054,0.027c-0.186,-0.096 -0.405,-0.144 -0.657,-0.144c-0.258,0 -0.454,0.088 -0.589,0.265c-0.135,0.177 -0.203,0.434 -0.203,0.77l-0.009,0.738l2.268,0l0.027,0.045l-0.036,0.288l-2.259,0l-0.018,1.98Z" style="fill:#1a1a1a;"/><text x="30.593px" y="199.755px" style="font-family:'AlegreyaSans-Light', 'Alegreya Sans';font-weight:300;font-size:9px;fill:#1a1a1a;">Isochrysis a<tspan x="72.083px " y="199.755px ">f</tspan>. galbana</text><g><text x="179.494px" y="48.807px" style="font-family:'AlegreyaSans-Light', 'Alegreya Sans';font-weight:300;font-size:9px;fill:#1a1a1a;">Caloneis schroderi</text><text x="318.464px" y="48.807px" style="font-family:'AlegreyaSans-Light', 'Alegreya Sans';font-weight:300;font-size:9px;fill:#1a1a1a;">Chaetoceros gracilis</text><text x="459.654px" y="48.807px" style="font-family:'AlegreyaSans-Light', 'Alegreya Sans';font-weight:300;font-size:9px;fill:#1a1a1a;">Chaetoceros simplex</text><text x="603.624px" y="48.807px" style="font-family:'AlegreyaSans-Light', 'Alegreya Sans';font-weight:300;font-size:9px;fill:#1a1a1a;">Chlorella ellipsoidea</text><g><clipPath id="_clip14"><rect x="148.384" y="54.287" width="136.88" height="50.59" clip-rule="nonzero"/></clipPath><g clip-path="url(#_clip14)"><path d="M148.384,92.597l136.88,0" style="fill:none;stroke:#ebebeb;stroke-width:0.21px;"/><path d="M148.384,72.137l136.88,0" style="fill:none;stroke:#ebebeb;stroke-width:0.21px;"/><path d="M154.604,104.877l0,-50.59" style="fill:none;stroke:#ebebeb;stroke-width:0.21px;"/><path d="M179.494,104.877l0,-50.59" style="fill:none;stroke:#ebebeb;stroke-width:0.21px;"/><path d="M204.374,104.877l0,-50.59" style="fill:none;stroke:#ebebeb;stroke-width:0.21px;"/><path d="M229.264,104.877l0,-50.59" style="fill:none;stroke:#ebebeb;stroke-width:0.21px;"/><path d="M254.154,104.877l0,-50.59" style="fill:none;stroke:#ebebeb;stroke-width:0.21px;"/><path d="M279.034,104.877l0,-50.59" style="fill:none;stroke:#ebebeb;stroke-width:0.21px;"/><path d="M154.604,72.297l24.89,1.47l74.66,-6.22l24.88,-1.63l0,6.22l-24.88,0l-74.66,0l-24.89,0l0,0.16Z" style="fill:#8fbcbb;fill-rule:nonzero;"/><path d="M154.604,72.297l24.89,1.47l74.66,-6.22l24.88,-1.63" style="fill:none;stroke:#4d4d4d;stroke-width:0.43px;stroke-linecap:round;"/><path d="M154.604,100.787l24.89,-12.28l74.66,-0.82l24.88,0.16l0,4.75l-24.88,0l-74.66,0l-24.89,0l0,8.19Z" style="fill:#5e81ac;fill-rule:nonzero;"/><path d="M154.604,100.787l24.89,-12.28l74.66,-0.82l24.88,0.16" style="fill:none;stroke:#4d4d4d;stroke-width:0.43px;stroke-linecap:round;"/></g></g><g><clipPath id="_clip15"><rect x="290.744" y="54.287" width="136.88" height="50.59" clip-rule="nonzero"/></clipPath><g clip-path="url(#_clip15)"><path d="M290.744,92.597l136.87,0" style="fill:none;stroke:#ebebeb;stroke-width:0.21px;"/><path d="M290.744,72.137l136.87,0" style="fill:none;stroke:#ebebeb;stroke-width:0.21px;"/><path d="M296.964,104.877l0,-50.59" style="fill:none;stroke:#ebebeb;stroke-width:0.21px;"/><path d="M321.844,104.877l0,-50.59" style="fill:none;stroke:#ebebeb;stroke-width:0.21px;"/><path d="M346.734,104.877l0,-50.59" style="fill:none;stroke:#ebebeb;stroke-width:0.21px;"/><path d="M371.624,104.877l0,-50.59" style="fill:none;stroke:#ebebeb;stroke-width:0.21px;"/><path d="M396.504,104.877l0,-50.59" style="fill:none;stroke:#ebebeb;stroke-width:0.21px;"/><path d="M421.394,104.877l0,-50.59" style="fill:none;stroke:#ebebeb;stroke-width:0.21px;"/><path d="M296.964,72.297l24.88,-2.78l74.66,-5.9l24.89,-1.63l0,10.15l-24.89,0l-74.66,0l-24.88,0l0,0.16Z" style="fill:#8fbcbb;fill-rule:nonzero;"/><path d="M296.964,72.297l24.88,-2.78l74.66,-5.9l24.89,-1.63" style="fill:none;stroke:#4d4d4d;stroke-width:0.43px;stroke-linecap:round;"/><path d="M296.964,93.417l24.88,-1.96l74.66,-5.24l24.89,-5.57l0,11.95l-24.89,0l-74.66,0l-24.88,0l0,0.82Z" style="fill:#5e81ac;fill-rule:nonzero;"/><path d="M296.964,93.417l24.88,-1.96l74.66,-5.24l24.89,-5.57" style="fill:none;stroke:#4d4d4d;stroke-width:0.43px;stroke-linecap:round;"/></g></g><g><clipPath id="_clip16"><rect x="433.094" y="54.287" width="136.88" height="50.59" clip-rule="nonzero"/></clipPath><g clip-path="url(#_clip16)"><path d="M433.094,92.597l136.88,0" style="fill:none;stroke:#ebebeb;stroke-width:0.21px;"/><path d="M433.094,72.137l136.88,0" style="fill:none;stroke:#ebebeb;stroke-width:0.21px;"/><path d="M439.314,104.877l0,-50.59" style="fill:none;stroke:#ebebeb;stroke-width:0.21px;"/><path d="M464.204,104.877l0,-50.59" style="fill:none;stroke:#ebebeb;stroke-width:0.21px;"/><path d="M489.094,104.877l0,-50.59" style="fill:none;stroke:#ebebeb;stroke-width:0.21px;"/><path d="M513.974,104.877l0,-50.59" style="fill:none;stroke:#ebebeb;stroke-width:0.21px;"/><path d="M538.864,104.877l0,-50.59" style="fill:none;stroke:#ebebeb;stroke-width:0.21px;"/><path d="M563.754,104.877l0,-50.59" style="fill:none;stroke:#ebebeb;stroke-width:0.21px;"/><path d="M439.314,73.117l24.89,-5.4l74.66,-3.28l24.89,-1.14l0,8.84l-24.89,0l-74.66,0l-24.89,0l0,0.98Z" style="fill:#8fbcbb;fill-rule:nonzero;"/><path d="M439.314,73.117l24.89,-5.4l74.66,-3.28l24.89,-1.14" style="fill:none;stroke:#4d4d4d;stroke-width:0.43px;stroke-linecap:round;"/><path d="M439.314,92.767l24.89,-9.17l74.66,0.49l24.89,-1.8l0,10.31l-24.89,0l-74.66,0l-24.89,0l0,0.17Z" style="fill:#5e81ac;fill-rule:nonzero;"/><path d="M439.314,92.767l24.89,-9.17l74.66,0.49l24.89,-1.8" style="fill:none;stroke:#4d4d4d;stroke-width:0.43px;stroke-linecap:round;"/></g></g><g><clipPath id="_clip17"><rect x="575.454" y="54.287" width="136.88" height="50.59" clip-rule="nonzero"/></clipPath><g clip-path="url(#_clip17)"><path d="M575.454,92.597l136.87,0" style="fill:none;stroke:#ebebeb;stroke-width:0.21px;"/><path d="M575.454,72.137l136.87,0" style="fill:none;stroke:#ebebeb;stroke-width:0.21px;"/><path d="M581.674,104.877l0,-50.59" style="fill:none;stroke:#ebebeb;stroke-width:0.21px;"/><path d="M606.564,104.877l0,-50.59" style="fill:none;stroke:#ebebeb;stroke-width:0.21px;"/><path d="M631.444,104.877l0,-50.59" style="fill:none;stroke:#ebebeb;stroke-width:0.21px;"/><path d="M656.334,104.877l0,-50.59" style="fill:none;stroke:#ebebeb;stroke-width:0.21px;"/><path d="M681.224,104.877l0,-50.59" style="fill:none;stroke:#ebebeb;stroke-width:0.21px;"/><path d="M706.104,104.877l0,-50.59" style="fill:none;stroke:#ebebeb;stroke-width:0.21px;"/><path d="M581.674,71.647l24.89,-9.01l74.66,-4.91l24.88,-1.64l0,16.05l-24.88,0l-74.66,0l-24.89,0l0,-0.49Z" style="fill:#8fbcbb;fill-rule:nonzero;"/><path d="M581.674,71.647l24.89,-9.01l74.66,-4.91l24.88,-1.64" style="fill:none;stroke:#4d4d4d;stroke-width:0.43px;stroke-linecap:round;"/><path d="M581.674,92.277l24.89,-8.35l74.66,-5.24l24.88,-1.48l0,15.39l-24.88,0l-74.66,0l-24.89,0l0,-0.32Z" style="fill:#5e81ac;fill-rule:nonzero;"/><path d="M581.674,92.277l24.89,-8.35l74.66,-5.24l24.88,-1.48" style="fill:none;stroke:#4d4d4d;stroke-width:0.43px;stroke-linecap:round;"/></g></g></g><text x="25.158px" y="123.912px" style="font-family:'AlegreyaSans-Light', 'Alegreya Sans';font-weight:300;font-size:9px;fill:#1a1a1a;">Chlorella stigmatophora</text><text x="4.946px" y="69.661px" style="font-family:'Oswald-Light', 'Oswald';font-weight:300;font-size:12px;fill:#4d4d4d;">+</text><g transform="matrix(1,0,0,1,9.65864,0.425819)"><text x="319.24px" y="352.04px" style="font-family:'AlegreyaSans-Light', 'Alegreya Sans';font-weight:300;font-size:10px;">T</text><text x="322.706px" y="352.04px" style="font-family:'AlegreyaSans-Light', 'Alegreya Sans';font-weight:300;font-size:10px;">emperature (</text><text x="372.436px" y="352.04px" style="font-family:'AlegreyaSans-Light', 'Alegreya Sans';font-weight:300;font-size:10px;">°</text><text x="374.013px" y="352.04px" style="font-family:'AlegreyaSans-Light', 'Alegreya Sans';font-weight:300;font-size:10px;">C)</text></g><text x="588.427px" y="352.466px" style="font-family:'AndaleMono', 'Andale Mono', monospace;font-size:6px;">J<tspan x="591.209px 593.991px 596.774px 599.556px 602.339px 605.121px 607.903px 610.686px 613.468px 616.251px 619.033px 621.815px 624.598px 627.38px 630.163px 632.945px 635.728px 638.51px 641.292px 644.075px 646.857px 649.64px 652.422px 655.204px 657.987px 660.769px 663.552px 666.334px 669.116px 671.899px 674.681px 677.464px 680.246px 683.028px 685.811px 688.593px 691.376px 694.158px 696.94px 699.723px 702.505px 705.288px 708.07px " y="352.466px 352.466px 352.466px 352.466px 352.466px 352.466px 352.466px 352.466px 352.466px 352.466px 352.466px 352.466px 352.466px 352.466px 352.466px 352.466px 352.466px 352.466px 352.466px 352.466px 352.466px 352.466px 352.466px 352.466px 352.466px 352.466px 352.466px 352.466px 352.466px 352.466px 352.466px 352.466px 352.466px 352.466px 352.466px 352.466px 352.466px 352.466px 352.466px 352.466px 352.466px 352.466px 352.466px ">ake Kaupp(@jakekaupp) http://bit.ly/2CO6r4O</tspan></text><g><text x="8.22px" y="31.21px" style="font-family:'AlegreyaSans-Light', 'Alegreya Sans';font-weight:300;font-size:10px;">Ridgeline plot of growth rate (divisions per day) vs temperature (</text><text x="252.11px" y="31.21px" style="font-family:'AlegreyaSans-Light', 'Alegreya Sans';font-weight:300;font-size:10px;">°</text><text x="254.05px" y="31.21px" style="font-family:'AlegreyaSans-Light', 'Alegreya Sans';font-weight:300;font-size:10px;">C). Light intensity (lux) indicated by colour</text></g><text x="8.709px" y="17.062px" style="font-family:'Oswald-Light', 'Oswald';font-weight:300;font-size:13px;">Speciﬁc growth rates of algae at diﬀerent light intensities and temperatures</text><g><clipPath id="_clip18"><rect x="4.188" y="54.287" width="136.88" height="50.59" clip-rule="nonzero"/></clipPath><g clip-path="url(#_clip18)"><path d="M4.188,92.607l136.87,0" style="fill:none;stroke:#ebebeb;stroke-width:0.21px;"/><path d="M4.188,72.137l136.87,0" style="fill:none;stroke:#ebebeb;stroke-width:0.21px;"/><path d="M10.408,104.877l0,-50.59" style="fill:none;stroke:#ebebeb;stroke-width:0.21px;"/><path d="M35.288,104.877l0,-50.59" style="fill:none;stroke:#ebebeb;stroke-width:0.21px;"/><path d="M60.178,104.877l0,-50.59" style="fill:none;stroke:#ebebeb;stroke-width:0.21px;"/><path d="M85.068,104.877l0,-50.59" style="fill:none;stroke:#ebebeb;stroke-width:0.21px;"/><path d="M109.948,104.877l0,-50.59" style="fill:none;stroke:#ebebeb;stroke-width:0.21px;"/><path d="M134.838,104.877l0,-50.59" style="fill:none;stroke:#ebebeb;stroke-width:0.21px;"/><path d="M10.408,71.157l24.88,0.32l74.66,5.9l24.89,-12.77l0,7.53l-24.89,0l-74.66,0l-24.88,0l0,-0.98Z" style="fill:#8fbcbb;fill-rule:nonzero;"/><path d="M10.408,71.157l24.88,0.32l74.66,5.9l24.89,-12.77" style="fill:none;stroke:#4d4d4d;stroke-width:0.43px;stroke-linecap:round;"/><path d="M10.408,91.457l24.88,-7.7l74.66,14.41l24.89,-6.55l0,0.99l-24.89,0l-74.66,0l-24.88,0l0,-1.15Z" style="fill:#5e81ac;fill-rule:nonzero;"/><path d="M10.408,91.457l24.88,-7.7l74.66,14.41l24.89,-6.55" style="fill:none;stroke:#4d4d4d;stroke-width:0.43px;stroke-linecap:round;"/></g></g><g><clipPath id="_clip19"><rect x="4.188" y="129.392" width="136.88" height="50.59" clip-rule="nonzero"/></clipPath><g clip-path="url(#_clip19)"><path d="M4.188,167.702l136.88,0" style="fill:none;stroke:#ebebeb;stroke-width:0.21px;"/><path d="M4.188,147.242l136.88,0" style="fill:none;stroke:#ebebeb;stroke-width:0.21px;"/><path d="M10.418,179.982l0,-50.59" style="fill:none;stroke:#ebebeb;stroke-width:0.21px;"/><path d="M35.298,179.982l0,-50.59" style="fill:none;stroke:#ebebeb;stroke-width:0.21px;"/><path d="M60.188,179.982l0,-50.59" style="fill:none;stroke:#ebebeb;stroke-width:0.21px;"/><path d="M85.078,179.982l0,-50.59" style="fill:none;stroke:#ebebeb;stroke-width:0.21px;"/><path d="M109.958,179.982l0,-50.59" style="fill:none;stroke:#ebebeb;stroke-width:0.21px;"/><path d="M134.848,179.982l0,-50.59" style="fill:none;stroke:#ebebeb;stroke-width:0.21px;"/><path d="M10.418,147.072l24.88,-5.73l74.66,-6.87l24.89,1.96l0,10.81l-24.89,0l-74.66,0l-24.88,0l0,-0.17Z" style="fill:#8fbcbb;fill-rule:nonzero;"/><path d="M10.418,147.072l24.88,-5.73l74.66,-6.87l24.89,1.96" style="fill:none;stroke:#4d4d4d;stroke-width:0.43px;stroke-linecap:round;"/><path d="M10.418,163.772l24.88,0l74.66,-5.24l24.89,2.79l0,6.38l-24.89,0l-74.66,0l-24.88,0l0,-3.93Z" style="fill:#5e81ac;fill-rule:nonzero;"/><path d="M10.418,163.772l24.88,0l74.66,-5.24l24.89,2.79" style="fill:none;stroke:#4d4d4d;stroke-width:0.43px;stroke-linecap:round;"/></g></g><g><clipPath id="_clip20"><rect x="6.923" y="205.235" width="136.88" height="50.59" clip-rule="nonzero"/></clipPath><g clip-path="url(#_clip20)"><path d="M6.923,243.545l136.88,0" style="fill:none;stroke:#ebebeb;stroke-width:0.21px;"/><path d="M6.923,223.085l136.88,0" style="fill:none;stroke:#ebebeb;stroke-width:0.21px;"/><path d="M13.153,255.825l0,-50.59" style="fill:none;stroke:#ebebeb;stroke-width:0.21px;"/><path d="M38.033,255.825l0,-50.59" style="fill:none;stroke:#ebebeb;stroke-width:0.21px;"/><path d="M62.923,255.825l0,-50.59" style="fill:none;stroke:#ebebeb;stroke-width:0.21px;"/><path d="M87.813,255.825l0,-50.59" style="fill:none;stroke:#ebebeb;stroke-width:0.21px;"/><path d="M112.693,255.825l0,-50.59" style="fill:none;stroke:#ebebeb;stroke-width:0.21px;"/><path d="M137.583,255.825l0,-50.59" style="fill:none;stroke:#ebebeb;stroke-width:0.21px;"/><path d="M13.153,233.235l24.88,-11.13l74.66,-11.79l24.89,0.33l0,12.44l-24.89,0l-74.66,0l-24.88,0l0,10.15Z" style="fill:#8fbcbb;fill-rule:nonzero;"/><path d="M13.153,233.235l24.88,-11.13l74.66,-11.79l24.89,0.33" style="fill:none;stroke:#4d4d4d;stroke-width:0.43px;stroke-linecap:round;"/><path d="M13.153,254.515l24.88,-8.67l74.66,-15.56l24.89,1.15l0,12.11l-24.89,0l-74.66,0l-24.88,0l0,10.97Z" style="fill:#5e81ac;fill-rule:nonzero;"/><path d="M13.153,254.515l24.88,-8.67l74.66,-15.56l24.89,1.15" style="fill:none;stroke:#4d4d4d;stroke-width:0.43px;stroke-linecap:round;"/></g></g><text x="99.689px" y="69.2px" style="font-family:'AlegreyaSans-Light', 'Alegreya Sans';font-weight:300;font-size:6px;">5000 lux</text><text x="99.689px" y="89.487px" style="font-family:'AlegreyaSans-Light', 'Alegreya Sans';font-weight:300;font-size:6px;">2500 lux</text><text x="5.304px" y="79.608px" style="font-family:'Oswald-Light', 'Oswald';font-weight:300;font-size:12px;fill:#4d4d4d;">-</text><g transform="matrix(0.528106,0,0,1,-303.64,-238.939)"><g transform="matrix(1.89356,0,0,1,-522.941,0)"><rect x="585.235" y="307.354" width="3.186" height="7.2" style="fill:#fff;"/></g><g transform="matrix(1.89356,0,0,1,-522.941,0)"><text x="585.235px" y="312.754px" style="font-family:'AlegreyaSans-Light', 'Alegreya Sans';font-weight:300;font-size:6px;">0</text></g></g><text x="10.113px" y="67.627px" style="font-family:'AlegreyaSans-Light', 'Alegreya Sans';font-weight:300;font-size:6px;">gro<tspan x="17.643px " y="67.627px ">w</tspan>th rat<tspan x="33.873px " y="67.627px ">e</tspan></text><text x="10.113px" y="78.324px" style="font-family:'AlegreyaSans-Light', 'Alegreya Sans';font-weight:300;font-size:6px;">gro<tspan x="17.643px " y="78.324px ">w</tspan>th rat<tspan x="33.873px " y="78.324px ">e</tspan></text><path d="M144.474,53.344c0,-3.337 -2.709,-6.046 -6.045,-6.046l-129.725,0c-3.337,0 -6.046,2.709 -6.046,6.046l0,48.546c0,3.336 2.709,6.045 6.046,6.045l129.725,0c3.336,0 6.045,-2.709 6.045,-6.045l0,-48.546Z" style="fill:none;stroke:#4d4d4d;stroke-width:0.2px;stroke-linecap:round;stroke-miterlimit:1.5;"/><g transform="matrix(1,0,0,0.287593,-577.644,-36.2976)"><g transform="matrix(1,0,0,3.47714,0,-685.623)"><rect x="610.921" y="274.998" width="65.952" height="10.8" style="fill:#fff;"/><path d="M643.897,285.998c0,0 0,10.8 0,10.8c0,0 0,-10.8 0,-10.8Z" style="fill:#fff;"/></g><g transform="matrix(1,0,0,3.47714,0,-685.623)"><text x="610.921px" y="283.098px" style="font-family:'AlegreyaSans-Light', 'Alegreya Sans';font-weight:300;font-size:9px;">Reading Ridgelines</text></g></g></svg>